#!OML:ASF I:\Actors\actors\Patient Classification 1\Patient 1\Session 1\Subject1.ASF
:FULLY-SPECIFIED
:DEGREES
571
root -0.326272 17.6241 8.15945 10.5673 -4.62482 -8.70055
lowerback 4.44136 0.0714521 2.64586
upperback -10.523 0.687113 2.58869
thorax -14.0114 0.221638 1.26622
lowerneck -9.66737 -10.2893 -6.72394
upperneck 16.5814 -12.9431 -0.417504
head 7.08138 -6.6931 -0.261164
rclavicle -7.50412e-015 -6.36111e-015
rhumerus 10.7081 -11.4947 -49.2676
rradius 81.4482
rwrist 5.92549
rhand -14.7743 -36.8531
rfingers 7.12502
rthumb 11.3824 293.476
lclavicle -7.50412e-015 -6.36111e-015
lhumerus -28.4494 -60.9718 84.787
lradius 85.3804
lwrist 53.3696
lhand -16.8128 13.5162
lfingers 7.12502
lthumb 9.41594 43.2859
rfemur -4.88792 25.656 23.1079
rtibia 1.99314
rfoot -11.3761 -24.2372
rtoes -0.7309
lfemur 4.80154 -43.9866 -13.0982
ltibia -4.02656
lfoot -23.1945 54.8905
ltoes 14.6147
572
root -0.324063 17.6167 8.16958 10.3259 -5.2567 -8.56567
lowerback 3.82391 0.087965 2.2645
upperback -10.4099 0.629532 2.5627
thorax -13.4836 0.23353 1.45229
lowerneck -10.3691 -9.92326 -6.20099
upperneck 17.6884 -12.4528 -0.679607
head 7.49665 -6.44973 -0.443367
rclavicle 1.25234e-014 -2.3059e-014
rhumerus 11.7568 -7.06233 -48.191
rradius 67.7251
rwrist -5.65049
rhand -19.1914 -58.6941
rfingers 7.12502
rthumb 7.12042 271.446
lclavicle 1.25234e-014 -2.3059e-014
lhumerus -27.6198 -60.9841 84.1198
lradius 83.7454
lwrist 55.1782
lhand -16.6908 14.9499
lfingers 7.12502
lthumb 9.53369 44.7142
rfemur -4.5978 25.7297 23.022
rtibia 1.9534
rfoot -11.1857 -23.7881
rtoes -1.4581
lfemur 5.67713 -44.0744 -13.976
ltibia -4.11915
lfoot -24.2188 55.3627
ltoes 15.3021
573
root -0.319381 17.6102 8.17881 9.9869 -5.82149 -8.42364
lowerback 2.89348 0.0242019 1.82179
upperback -9.94618 0.450831 2.63288
thorax -12.3519 0.196819 1.78286
lowerneck -11.309 -9.44534 -5.57003
upperneck 18.4459 -11.8026 -0.965516
head 7.83382 -6.11957 -0.631288
rclavicle -5.81445e-015 -1.19271e-015
rhumerus 13.3421 -0.147375 -45.4468
rradius 54.6108
rwrist -27.7361
rhand -4.22609 108.316
rfingers 7.12502
rthumb 21.5368 137.138
lclavicle -5.81445e-015 -1.19271e-015
lhumerus -24.9939 -60.8973 81.7822
lradius 82.1292
lwrist 57.6454
lhand -17.0859 17.3623
lfingers 7.12502
lthumb 9.15242 47.1437
rfemur -4.24004 25.6469 22.9736
rtibia 1.98276
rfoot -11.0315 -23.2528
rtoes -1.92394
lfemur 6.57688 -43.9548 -14.8618
ltibia -4.21287
lfoot -24.9311 55.6351
ltoes 15.7334
574
root -0.31349 17.6063 8.1836 9.57458 -6.15066 -8.36072
lowerback 3.39123 0.17559 2.29739
upperback -10.284 0.689122 2.21935
thorax -13.0533 0.235486 1.04321
lowerneck -11.6445 -9.16611 -5.29221
upperneck 19.7019 -11.4755 -0.988344
head 8.28662 -5.95004 -0.702959
rclavicle 1.75924e-014 -3.18055e-014
rhumerus 14.5459 4.89001 -41.6693
rradius 41.9658
rwrist -32.332
rhand 47.9661 104.829
rfingers 7.12502
rthumb 68.5673 104.656
lclavicle 1.75924e-014 -3.18055e-014
lhumerus -24.4457 -62.0323 80.9772
lradius 81.0424
lwrist 60.599
lhand -20.7494 16.443
lfingers 7.12502
lthumb 5.61634 46.3486
rfemur -3.82836 25.379 23.0712
rtibia 2.09253
rfoot -10.9696 -22.7428
rtoes -2.07947
lfemur 7.18043 -43.3081 -15.3928
ltibia -4.16764
lfoot -24.7916 55.2932
ltoes 15.5606
575
root -0.313833 17.6101 8.18329 9.1616 -6.32493 -8.23175
lowerback 3.68227 0.368873 2.67113
upperback -10.231 0.969043 1.91269
thorax -13.1624 0.310617 0.45693
lowerneck -12.2829 -8.98235 -5.49426
upperneck 20.2296 -11.2253 -0.631003
head 8.60967 -5.80402 -0.578569
rclavicle -8.74653e-015 7.55382e-015
rhumerus 13.295 0.504651 -43.3007
rradius 32.1886
rwrist -30.2265
rhand 91.1316 -37.2525
rfingers 7.12502
rthumb 58.6483 67.6596
lclavicle -8.74653e-015 7.55382e-015
lhumerus -21.4708 -62.2027 78.2106
lradius 80.7864
lwrist 62.5247
lhand -24.3641 18.1388
lfingers 7.12502
lthumb 2.12572 48.108
rfemur -3.49762 25.0532 23.1014
rtibia 2.30161
rfoot -10.98 -22.3122
rtoes -2.27689
lfemur 7.42269 -42.2692 -15.6714
ltibia -3.98609
lfoot -23.9665 54.4557
ltoes 14.8304
576
root -0.323961 17.6233 8.17919 8.87124 -6.43451 -8.08179
lowerback 3.90863 0.528165 2.87139
upperback -10.051 1.18967 1.70415
thorax -13.0802 0.38389 0.0806939
lowerneck -12.7764 -8.69902 -5.46121
upperneck 19.9946 -10.8234 -0.500413
head 8.61423 -5.59164 -0.509727
rclavicle 1.02374e-014 -7.95139e-016
rhumerus 9.0195 6.18023 -42.5054
rradius 30.4269
rwrist -70.7562
rhand 79.1112 33.6217
rfingers 7.12502
rthumb 68.4206 236.179
lclavicle 1.02374e-014 -7.95139e-016
lhumerus -17.7631 -60.5387 74.7746
lradius 81.737
lwrist 64.3912
lhand -27.2814 21.0157
lfingers 7.12502
lthumb -0.691903 50.9943
rfemur -3.40185 24.7964 23.068
rtibia 2.64081
rfoot -11.0358 -22.0002
rtoes -2.36167
lfemur 7.38054 -41.2047 -15.7009
ltibia -3.81003
lfoot -22.9422 53.5343
ltoes 13.9369
577
root -0.339064 17.6407 8.17401 8.79807 -6.26949 -8.04384
lowerback 4.16364 0.532841 3.13963
upperback -10.0332 1.2238 1.58388
thorax -13.2123 0.363501 -0.207878
lowerneck -12.9563 -8.26786 -4.90187
upperneck 19.4698 -10.2156 -0.972326
head 8.39372 -5.30951 -0.667692
rclavicle -1.42131e-014 -7.95139e-015
rhumerus 6.35364 14.3249 -43.831
rradius 59.9169
rwrist -26.4313
rhand 2.78927 -60.8229
rfingers 7.12502
rthumb 28.2592 271.288
lclavicle -1.42131e-014 -7.95139e-015
lhumerus -15.4229 -57.9488 72.3876
lradius 83.5264
lwrist 65.4547
lhand -31.3973 19.859
lfingers 7.12502
lthumb -4.66678 49.7876
rfemur -3.54585 24.4523 23.0866
rtibia 2.98343
rfoot -11.101 -21.8434
rtoes -2.37228
lfemur 6.93907 -40.3229 -15.2736
ltibia -3.65962
lfoot -21.8837 52.595
ltoes 13.1739
578
root -0.347814 17.6501 8.17013 8.96055 -5.85328 -8.42559
lowerback 4.47153 0.473982 4.00762
upperback -10.2036 1.26816 1.62386
thorax -13.6028 0.290343 -0.655743
lowerneck -13.0334 -7.79129 -4.14351
upperneck 19.0406 -9.50259 -1.92788
head 8.15816 -5.01303 -1.00155
rclavicle -5.96354e-016 2.3059e-014
rhumerus 3.95475 9.85471 -46.7987
rradius 69.209
rwrist -32.2107
rhand -2.34112 -61.7039
rfingers 7.12502
rthumb 23.3462 450.308
lclavicle -5.96354e-016 2.3059e-014
lhumerus -13.6268 -54.5684 70.6144
lradius 86.4289
lwrist 64.3701
lhand -32.5778 19.5432
lfingers 7.12502
lthumb -5.80661 49.4436
rfemur -3.82721 23.9327 23.4943
rtibia 3.22335
rfoot -11.175 -21.6438
rtoes -2.17269
lfemur 6.28968 -39.7347 -14.2512
ltibia -3.58502
lfoot -21.1167 51.8082
ltoes 12.7587
579
root -0.350869 17.6477 8.16845 9.47961 -5.51362 -8.83712
lowerback 4.44115 0.465526 4.86521
upperback -10.4646 1.38471 1.8023
thorax -13.893 0.259406 -0.951953
lowerneck -13.2143 -7.2621 -3.72733
upperneck 18.9449 -8.70189 -2.62699
head 8.09681 -4.67276 -1.20819
rclavicle 2.08724e-015 1.47101e-014
rhumerus 2.25925 6.4292 -49.1979
rradius 78.3606
rwrist -38.6395
rhand -7.36727 -61.7778
rfingers 7.12502
rthumb 18.5176 450.916
lclavicle 2.08724e-015 1.47101e-014
lhumerus -11.8747 -50.9081 69.2478
lradius 89.4965
lwrist 62.5518
lhand -33.8443 17.733
lfingers 7.12502
lthumb -7.02925 47.5963
rfemur -4.49715 23.4707 23.7353
rtibia 3.39791
rfoot -11.1995 -21.367
rtoes -1.94086
lfemur 5.3675 -39.6117 -13.1403
ltibia -3.50903
lfoot -20.9094 51.5585
ltoes 12.5717
580
root -0.367066 17.6547 8.18195 9.76762 -4.77837 -8.49912
lowerback 3.98348 0.267426 4.47918
upperback -10.459 1.07107 2.06591
thorax -13.6192 0.175628 -0.394588
lowerneck -13.4683 -6.73787 -3.54659
upperneck 18.7973 -7.90989 -3.06583
head 8.06328 -4.32588 -1.29793
rclavicle -1.635e-014 4.37326e-015
rhumerus 2.68108 4.47632 -51.0647
rradius 86.948
rwrist -37.3611
rhand -7.60653 -60.0492
rfingers 7.12502
rthumb 18.2874 630.79
lclavicle -1.635e-014 4.37326e-015
lhumerus -9.89527 -46.7938 68.2203
lradius 92.6443
lwrist 58.7156
lhand -34.6925 14.8446
lfingers 7.12502
lthumb -7.84795 44.6789
rfemur -4.52471 23.9577 23.3833
rtibia 3.04592
rfoot -11.4612 -22.4827
rtoes -1.06117
lfemur 4.7029 -40.107 -12.9888
ltibia -3.47033
lfoot -20.5015 51.4854
ltoes 12.066
581
root -0.382209 17.6516 8.18804 10.1573 -4.28295 -8.16117
lowerback 3.89938 0.0752853 4.19759
upperback -10.6387 0.797275 2.20653
thorax -13.7956 0.080711 -0.0370022
lowerneck -13.8046 -6.1682 -3.06122
upperneck 18.8757 -7.11312 -3.54481
head 8.11035 -3.96251 -1.4583
rclavicle -7.55382e-015 -1.98785e-016
rhumerus 2.86927 3.33337 -53.233
rradius 95.6405
rwrist -34.6512
rhand -7.92357 -59.3466
rfingers 7.12502
rthumb 17.9824 631.465
lclavicle -7.55382e-015 -1.98785e-016
lhumerus -8.5964 -42.3092 67.685
lradius 96.3682
lwrist 54.7973
lhand -35.4832 12.9978
lfingers 7.12502
lthumb -8.61112 42.8022
rfemur -4.76425 24.5186 22.9249
rtibia 2.75847
rfoot -11.6869 -23.4329
rtoes -0.391447
lfemur 4.11784 -40.8284 -12.8993
ltibia -3.56294
lfoot -20.4344 51.7994
ltoes 12.1683
582
root -0.392842 17.6401 8.18432 10.4942 -3.84065 -7.99749
lowerback 3.79928 -0.121713 4.08628
upperback -10.6365 0.539403 2.46138
thorax -13.7417 -0.0115064 0.345468
lowerneck -14.191 -5.62855 -2.69317
upperneck 18.6674 -6.36455 -3.88045
head 8.08777 -3.61335 -1.55231
rclavicle 3.32716e-014 -4.07509e-014
rhumerus 3.44352 3.34256 -54.876
rradius 103.758
rwrist -30.3673
rhand -8.44236 -56.2263
rfingers 7.12502
rthumb 17.4832 634.54
lclavicle 3.32716e-014 -4.07509e-014
lhumerus -7.49786 -37.5268 67.6498
lradius 100.285
lwrist 50.5142
lhand -36.5485 9.58959
lfingers 7.12502
lthumb -9.63906 39.3491
rfemur -4.96369 24.9403 22.6726
rtibia 2.4801
rfoot -11.8053 -24.1887
rtoes -0.192393
lfemur 3.57256 -41.3076 -12.6379
ltibia -3.63066
lfoot -20.0266 51.9708
ltoes 11.8215
583
root -0.402272 17.6295 8.17529 10.7426 -3.49432 -7.74048
lowerback 3.42553 -0.326083 3.79274
upperback -10.3058 0.226916 2.77469
thorax -13.1183 -0.100801 0.886518
lowerneck -14.5979 -5.08841 -2.44848
upperneck 18.0013 -5.64632 -3.9796
head 7.93285 -3.25796 -1.54034
rclavicle -9.97651e-015 -6.4605e-015
rhumerus 4.52397 3.92142 -55.8912
rradius 111.345
rwrist -24.0486
rhand -8.22483 -52.1384
rfingers 7.12502
rthumb 17.6925 638.647
lclavicle -9.97651e-015 -6.4605e-015
lhumerus -6.39673 -32.7046 67.8524
lradius 104.405
lwrist 46.0518
lhand -38.0373 3.65067
lfingers 7.12502
lthumb -11.0753 33.3384
rfemur -5.1196 25.3248 22.3169
rtibia 2.22954
rfoot -11.9216 -24.8588
rtoes 0.130244
lfemur 3.13099 -41.9265 -12.6042
ltibia -3.60848
lfoot -19.896 52.2682
ltoes 11.5575
584
root -0.410397 17.6238 8.16276 10.8811 -3.21566 -7.57075
lowerback 4.30902 -0.31903 4.2491
upperback -10.6944 0.337169 2.55977
thorax -14.1453 -0.122611 0.402698
lowerneck -14.4042 -4.72348 -1.99459
upperneck 17.8562 -5.28564 -3.84727
head 7.84226 -3.04013 -1.52034
rclavicle -2.13072e-014 1.11319e-014
rhumerus 3.38844 4.97144 -56.9462
rradius 118.622
rwrist -17.044
rhand -9.01605 -44.9337
rfingers 7.12502
rthumb 16.931 645.784
lclavicle -2.13072e-014 1.11319e-014
lhumerus -6.75055 -29.7381 68.5318
lradius 108.919
lwrist 41.8157
lhand -40.3168 -2.74036
lfingers 7.12502
lthumb -13.2732 26.817
rfemur -5.23058 25.6329 22.0923
rtibia 2.09561
rfoot -12.0701 -25.4018
rtoes 0.868764
lfemur 2.78233 -42.3294 -12.5181
ltibia -3.59624
lfoot -19.8527 52.4312
ltoes 11.4388
585
root -0.416421 17.626 8.14939 10.9904 -2.95748 -7.5861
lowerback 4.6762 -0.368557 4.66655
upperback -10.612 0.333418 2.49804
thorax -14.2851 -0.175097 0.104814
lowerneck -14.6691 -4.31061 -1.16049
upperneck 17.3473 -4.902 -3.88349
head 7.69831 -2.80104 -1.62006
rclavicle -2.59662e-015 -2.34566e-014
rhumerus 2.71897 6.63258 -57.8492
rradius 124.807
rwrist -9.55842
rhand -12.8309 -37.0329
rfingers 7.12502
rthumb 13.2562 653.409
lclavicle -2.59662e-015 -2.34566e-014
lhumerus -6.59092 -27.4437 68.8472
lradius 112.908
lwrist 37.1168
lhand -42.9545 -12.7016
lfingers 7.12502
lthumb -15.8145 16.6725
rfemur -5.37344 25.7688 22.0928
rtibia 2.08534
rfoot -12.1272 -25.7468
rtoes 1.07332
lfemur 2.38092 -42.2503 -12.1407
ltibia -3.6049
lfoot -19.7081 52.209
ltoes 11.3914
